<svg xmlns="http://www.w3.org/2000/svg" viewBox="0 0 32 32">
  <style>
    rect { fill: #ffffff; stroke: #e2e4e8; }
    path { fill: #111214; }
    @media (prefers-color-scheme: dark) {
      rect { fill: #111214; stroke: #2a2c30; }
      path { fill: #f2f2f2; }
    }
  </style>
  <rect x="0.5" y="0.5" width="31" height="31" stroke-width="1"/>
  <path d="M8.67 25.27Q7.40 25.27 6.12 25.27Q4.84 25.27 3.57 25.27Q3.49 25.27 3.43 25.23Q3.36 25.19 3.32 25.14Q3.28 25.09 3.28 24.98Q3.28 22.86 3.28 20.80Q3.28 18.74 3.28 16.68Q3.28 14.61 3.28 12.54Q3.28 10.46 3.28 8.37H8.91L8.67 8.94Q8.67 10.16 8.67 11.39Q8.67 12.62 8.67 13.84Q8.67 15.31 8.67 16.76Q8.67 18.21 8.67 19.67Q8.67 21.14 8.67 22.68Q8.67 23.39 8.67 24.05Q8.67 24.72 8.67 25.27ZM2.00 6.73H14.62Q14.72 6.73 14.78 6.77Q14.83 6.81 14.87 6.86Q14.91 6.91 14.91 7.02Q14.91 7.63 14.91 8.48Q14.91 9.33 14.91 10.18Q14.91 11.02 14.91 11.63H2.29Q2.21 11.63 2.15 11.59Q2.08 11.55 2.04 11.48Q2.00 11.42 2.00 11.34Q2.00 10.15 2.00 9.02Q2.00 7.89 2.00 6.73ZM6.03 14.76H13.29Q13.43 14.76 13.51 14.84Q13.58 14.92 13.58 15.06Q13.58 15.66 13.58 16.48Q13.58 17.29 13.58 18.10Q13.58 18.91 13.58 19.49H6.04ZM21.72 25.27Q20.44 25.27 19.17 25.27Q17.89 25.27 16.60 25.27Q16.47 25.27 16.39 25.18Q16.31 25.09 16.31 24.98Q16.31 22.86 16.31 20.79Q16.31 18.72 16.31 16.67Q16.31 14.61 16.31 12.54Q16.31 10.47 16.31 8.35H21.93L21.72 8.81Q21.72 9.97 21.72 11.09Q21.72 12.21 21.72 13.36Q21.72 14.88 21.72 16.41Q21.72 17.94 21.72 19.48Q21.72 21.02 21.72 22.62Q21.72 23.33 21.72 24.01Q21.72 24.68 21.72 25.27ZM15.39 6.73Q17.52 6.73 19.74 6.73Q21.97 6.73 24.03 6.73Q25.24 6.73 26.20 6.99Q27.17 7.26 27.88 7.77Q28.59 8.29 29.06 9.05Q29.54 9.80 29.77 10.78Q30.00 11.75 30.00 12.95V14.54Q30.00 16.02 29.63 17.18Q29.27 18.35 28.52 19.16Q27.77 19.96 26.66 20.39Q25.55 20.81 24.05 20.81Q23.11 20.81 22.15 20.81Q21.18 20.81 20.22 20.81L19.93 21.01V16.26Q20.71 16.26 21.46 16.26Q22.22 16.26 22.88 16.26Q23.35 16.26 23.67 16.19Q23.99 16.11 24.17 15.92Q24.36 15.74 24.44 15.42Q24.53 15.10 24.53 14.60V13.02Q24.53 12.54 24.44 12.24Q24.35 11.95 24.18 11.78Q23.98 11.56 23.67 11.50Q23.37 11.44 22.96 11.44Q21.76 11.44 20.54 11.44Q19.33 11.44 18.10 11.44Q16.88 11.44 15.68 11.44Q15.55 11.44 15.47 11.36Q15.39 11.27 15.39 11.15Q15.39 10.03 15.39 8.94Q15.39 7.85 15.39 6.73Z"/>
</svg>
